<svg xmlns="http://www.w3.org/2000/svg" xmlns:xlink="http://www.w3.org/1999/xlink" viewBox="0 0 430 430" width="430" height="430" preserveAspectRatio="xMidYMid meet" style="width: 100%; height: 100%; transform: translate3d(0px, 0px, 0px); content-visibility: visible;"><defs><clipPath id="__lottie_element_59"><rect width="430" height="430" x="0" y="0"/></clipPath><clipPath id="__lottie_element_61"><path d="M0,0 L430,0 L430,430 L0,430z"/></clipPath><clipPath id="__lottie_element_66"><path d="M0,0 L430,0 L430,430 L0,430z"/></clipPath><clipPath id="__lottie_element_70"><path d="M0,0 L430,0 L430,430 L0,430z"/></clipPath><g id="__lottie_element_73"><g clip-path="url(#__lottie_element_74)" transform="matrix(1,0,0,1,0,10)" opacity="1" style="display: block;"><g transform="matrix(0.7071067690849304,-0.7071067690849304,0.7071067690849304,0.7071067690849304,211.443603515625,204.69808959960938)" opacity="1" style="display: none;"><g opacity="1" transform="matrix(1,0,0,1,0,0)"><path class="primary" fill="rgb(21,198,45)" fill-opacity="1" d=" M-35.51935577392578,41.617855072021484 C-35.51935577392578,41.617855072021484 113.6660385131836,41.23560333251953 113.6660385131836,41.23560333251953 C113.6660385131836,41.23560333251953 113.6660385131836,57.87762451171875 113.6660385131836,57.87762451171875 C113.6660385131836,57.87762451171875 145.0824737548828,57.87762451171875 145.0824737548828,57.87762451171875 C145.0824737548828,57.87762451171875 145.0824737548828,47.536415100097656 145.0824737548828,47.536415100097656 C145.0824737548828,47.536415100097656 176.4994659423828,47.536415100097656 176.4994659423828,47.536415100097656 C176.4994659423828,47.536415100097656 176.4994659423828,57.87762451171875 176.4994659423828,57.87762451171875 C176.4994659423828,57.87762451171875 207.91604614257812,57.87762451171875 207.91604614257812,57.87762451171875 C207.91604614257812,57.87762451171875 207.91604614257812,41.23560333251953 207.91604614257812,41.23560333251953 C207.91604614257812,41.23560333251953 220.886474609375,41.193763732910156 220.886474609375,41.193763732910156 C227.02088928222656,41.193763732910156 231.9401092529297,36.64820861816406 231.9401092529297,30.513208389282227 C231.9401092529297,30.513208389282227 231.1830596923828,2.5996742248535156 231.1830596923828,2.5996742248535156 C231.1830596923828,-3.535325765609741 226.21006774902344,-8.508325576782227 220.07606506347656,-8.508325576782227 C220.07606506347656,-8.508325576782227 -36.32975769042969,-8.084235191345215 -36.32975769042969,-8.084235191345215"/></g></g><g transform="matrix(0.7071067690849304,-0.7071067690849304,0.7071067690849304,0.7071067690849304,211.443603515625,204.69808959960938)" opacity="1" style="display: none;"><g opacity="1" transform="matrix(1,0,0,1,0,0)"><path class="primary" fill="rgb(21,198,45)" fill-opacity="1" d=" M-36.78499984741211,61.933998107910156 C-36.78499984741211,61.933998107910156 111.38600158691406,61.63100051879883 111.38600158691406,61.63100051879883 C111.38600158691406,61.63100051879883 111.38600158691406,90.66699981689453 111.38600158691406,90.66699981689453 C111.38600158691406,90.66699981689453 142.80299377441406,90.66699981689453 142.80299377441406,90.66699981689453 C142.80299377441406,90.66699981689453 142.80299377441406,72.625 142.80299377441406,72.625 C142.80299377441406,72.625 174.22000122070312,72.625 174.22000122070312,72.625 C174.22000122070312,72.625 174.22000122070312,90.66699981689453 174.22000122070312,90.66699981689453 C174.22000122070312,90.66699981689453 205.63600158691406,90.66600036621094 205.63600158691406,90.66600036621094 C205.63600158691406,90.66600036621094 205.63600158691406,61.63100051879883 205.63600158691406,61.63100051879883 C205.63600158691406,61.63100051879883 218.60699462890625,61.558998107910156 218.60699462890625,61.558998107910156 C224.74200439453125,61.558998107910156 229.71400451660156,56.58599853515625 229.71400451660156,50.45100021362305 C229.71400451660156,50.45100021362305 231.12899780273438,-0.17499999701976776 231.12899780273438,-0.17499999701976776 C231.12899780273438,-6.309999942779541 226.15499877929688,-11.282999992370605 220.02099609375,-11.282999992370605 C220.02099609375,-11.282999992370605 -35.37099838256836,-10.907999992370605 -35.37099838256836,-10.907999992370605"/></g></g><g transform="matrix(0.7071067690849304,-0.7071067690849304,-0.7071067690849304,-0.7071067690849304,221.54391479492188,216.44540405273438)" opacity="1" style="display: block;"><g opacity="1" transform="matrix(1,0,0,1,0,0)"><path class="primary" fill="rgb(21,198,45)" fill-opacity="1" d=" M-35.42430877685547,25.756057739257812 C-35.42430877685547,25.756057739257812 120.56925201416016,25.1030216217041 120.56925201416016,25.1030216217041 C120.56925201416016,25.1030216217041 120.56925201416016,53.4499397277832 120.56925201416016,53.4499397277832 C120.56925201416016,53.4499397277832 144.22006225585938,53.794559478759766 144.22006225585938,53.794559478759766 C144.22006225585938,53.794559478759766 144.22006225585938,36.181705474853516 144.22006225585938,36.181705474853516 C144.22006225585938,36.181705474853516 183.40325927734375,35.83610916137695 183.40325927734375,35.83610916137695 C183.40325927734375,35.83610916137695 183.40325927734375,53.4499397277832 183.40325927734375,53.4499397277832 C183.40325927734375,53.4499397277832 207.0540313720703,53.794559478759766 207.0540313720703,53.794559478759766 C207.0540313720703,53.794559478759766 207.0540313720703,25.448619842529297 207.0540313720703,25.448619842529297 C207.0540313720703,25.448619842529297 220.02406311035156,25.378328323364258 220.02406311035156,25.378328323364258 C226.1590576171875,25.378328323364258 231.1280975341797,20.429061889648438 231.1280975341797,14.294062614440918 C231.1280975341797,14.294062614440918 231.1310577392578,-0.020726125687360764 231.1310577392578,-0.020726125687360764 C231.1310577392578,-6.155725955963135 226.15904235839844,-11.1287260055542 220.02406311035156,-11.1287260055542 C220.02406311035156,-11.1287260055542 -35.42430877685547,-10.750996589660645 -35.42430877685547,-10.750996589660645"/></g></g></g></g><clipPath id="__lottie_element_74"><path d="M0,0 L430,0 L430,430 L0,430z"/></clipPath><clipPath id="__lottie_element_84"><path d="M0,0 L430,0 L430,430 L0,430z"/></clipPath><clipPath id="__lottie_element_88"><path d="M0,0 L430,0 L430,430 L0,430z"/></clipPath><g id="__lottie_element_91"><g clip-path="url(#__lottie_element_92)" transform="matrix(1,0,0,1,2.75,9.5)" opacity="1" style="display: block;"><g transform="matrix(0.7071067690849304,-0.7071067690849304,0.7071067690849304,0.7071067690849304,211.443603515625,204.69808959960938)" opacity="1" style="display: none;"><path class="primary" fill="rgb(21,198,45)" fill-opacity="1" d=" M-80.31022644042969,-19.59163475036621 C-80.31022644042969,-19.59163475036621 -74.7319564819336,-10.743475914001465 -74.8147964477539,7.451330661773682 C-74.89879608154297,26.40416145324707 -80.291015625,33.918338775634766 -80.291015625,33.918338775634766 C-80.291015625,33.918338775634766 -47.88821792602539,34.15253829956055 -47.88821792602539,34.15253829956055 C-40.96521759033203,34.15253829956055 -35.35221862792969,28.538965225219727 -35.35221862792969,21.615964889526367 C-35.35221862792969,21.615964889526367 -35.35221862792969,21.615964889526367 -35.35221862792969,21.615964889526367 C-35.35221862792969,21.615964889526367 -35.37099838256836,-6.671320915222168 -35.37099838256836,-6.671320915222168 C-35.37099838256836,-6.671320915222168 -35.37099838256836,-6.671320915222168 -35.37099838256836,-6.671320915222168 C-35.37099838256836,-13.594321250915527 -40.98400115966797,-19.207321166992188 -47.90700149536133,-19.207321166992188 C-47.90700149536133,-19.207321166992188 -80.31022644042969,-19.59163475036621 -80.31022644042969,-19.59163475036621z"/><g opacity="1" transform="matrix(1,0,0,1,0,0)"/></g><g transform="matrix(0.7071067690849304,-0.7071067690849304,0.7071067690849304,0.7071067690849304,211.443603515625,204.69808959960938)" opacity="1" style="display: none;"><path class="primary" fill="rgb(21,198,45)" fill-opacity="1" d=" M-83.70600128173828,-30.30699920654297 C-83.70600128173828,-30.30699920654297 -74.43399810791016,-19.19300079345703 -74.51300048828125,7.677999973297119 C-74.59700012207031,36.138999938964844 -83.70600128173828,44.20000076293945 -83.70600128173828,44.20000076293945 C-83.70600128173828,44.20000076293945 -47.90700149536133,44.736000061035156 -47.90700149536133,44.736000061035156 C-40.98400115966797,44.736000061035156 -35.37099838256836,39.12200164794922 -35.37099838256836,32.19900131225586 C-35.37099838256836,32.19900131225586 -35.37099838256836,32.19900131225586 -35.37099838256836,32.19900131225586 C-35.37099838256836,32.19900131225586 -35.37099838256836,-17.236000061035156 -35.37099838256836,-17.236000061035156 C-35.37099838256836,-17.236000061035156 -35.37099838256836,-17.236000061035156 -35.37099838256836,-17.236000061035156 C-35.37099838256836,-24.159000396728516 -40.98400115966797,-29.77199935913086 -47.90700149536133,-29.77199935913086 C-47.90700149536133,-29.77199935913086 -83.70600128173828,-30.30699920654297 -83.70600128173828,-30.30699920654297z"/><g opacity="1" transform="matrix(1,0,0,1,0,0)"/></g><g transform="matrix(0.7071067690849304,-0.7071067690849304,-0.7071067690849304,-0.7071067690849304,221.54391479492188,216.44540405273438)" opacity="1" style="display: block;"><path class="primary" fill="rgb(21,198,45)" fill-opacity="1" d=" M-83.5171890258789,-29.711217880249023 C-83.5171890258789,-29.711217880249023 -74.45056915283203,-18.72319984436035 -74.52977752685547,7.6653971672058105 C-74.61377716064453,35.59773635864258 -83.51612091064453,43.628334045410156 -83.51612091064453,43.628334045410156 C-83.51612091064453,43.628334045410156 -47.90595626831055,44.147552490234375 -47.90595626831055,44.147552490234375 C-40.98295593261719,44.147552490234375 -35.369956970214844,38.53357696533203 -35.369956970214844,31.610576629638672 C-35.369956970214844,31.610576629638672 -35.369956970214844,31.610576629638672 -35.369956970214844,31.610576629638672 C-35.369956970214844,31.610576629638672 -35.37099838256836,-16.648595809936523 -35.37099838256836,-16.648595809936523 C-35.37099838256836,-16.648595809936523 -35.37099838256836,-16.648595809936523 -35.37099838256836,-16.648595809936523 C-35.37099838256836,-23.571596145629883 -40.98400115966797,-29.18459701538086 -47.90700149536133,-29.18459701538086 C-47.90700149536133,-29.18459701538086 -83.5171890258789,-29.711217880249023 -83.5171890258789,-29.711217880249023z"/><g opacity="1" transform="matrix(1,0,0,1,0,0)"/></g></g></g><clipPath id="__lottie_element_92"><path d="M0,0 L430,0 L430,430 L0,430z"/></clipPath><clipPath id="__lottie_element_96"><path d="M0,0 L430,0 L430,430 L0,430z"/></clipPath><clipPath id="__lottie_element_100"><path d="M0,0 L430,0 L430,430 L0,430z"/></clipPath><g id="__lottie_element_103"><g clip-path="url(#__lottie_element_104)" transform="matrix(1,0,0,1,2.75,9.5)" opacity="1" style="display: block;"><g transform="matrix(0.7071067690849304,-0.7071067690849304,0.7071067690849304,0.7071067690849304,211.443603515625,204.69808959960938)" opacity="1" style="display: none;"><g opacity="1" transform="matrix(1,0,0,1,0,0)"><path class="primary" fill="rgb(21,198,45)" fill-opacity="1" d=" M-68.99005126953125,2.018951177597046 C-68.99005126953125,26.110305786132812 -102.99961853027344,45.63991928100586 -144.95262145996094,45.63991928100586 C-186.90562438964844,45.63991928100586 -220.91505432128906,26.110305786132812 -220.91505432128906,2.018951177597046 C-220.91505432128906,-22.072402954101562 -186.90562438964844,-41.601871490478516 -144.95262145996094,-41.601871490478516 C-102.99961853027344,-41.601871490478516 -68.99005126953125,-22.072402954101562 -68.99005126953125,2.018951177597046z"/></g></g><g transform="matrix(0.7071067690849304,-0.7071067690849304,0.7071067690849304,0.7071067690849304,211.443603515625,204.69808959960938)" opacity="1" style="display: none;"><g opacity="1" transform="matrix(1,0,0,1,0,0)"><path class="primary" fill="rgb(21,198,45)" fill-opacity="1" d=" M-69.00199890136719,7.142000198364258 C-69.00199890136719,-34.59199905395508 -103.01200103759766,-68.42500305175781 -144.96499633789062,-68.42500305175781 C-186.91799926757812,-68.42500305175781 -220.927001953125,-34.59199905395508 -220.927001953125,7.142000198364258 C-220.927001953125,48.875999450683594 -186.91799926757812,82.70800018310547 -144.96499633789062,82.70800018310547 C-103.01200103759766,82.70800018310547 -69.00199890136719,48.875999450683594 -69.00199890136719,7.142000198364258z"/></g></g><g transform="matrix(0.7071067690849304,-0.7071067690849304,-0.7071067690849304,-0.7071067690849304,221.54391479492188,216.44540405273438)" opacity="1" style="display: block;"><g opacity="1" transform="matrix(1,0,0,1,0,0)"><path class="primary" fill="rgb(21,198,45)" fill-opacity="1" d=" M-68.99893951416016,7.450547695159912 C-68.99893951416016,-33.29030990600586 -103.0089111328125,-66.3182144165039 -144.9619140625,-66.3182144165039 C-186.9149169921875,-66.3182144165039 -220.92393493652344,-33.29030990600586 -220.92393493652344,7.450547695159912 C-220.92393493652344,48.191402435302734 -186.9149169921875,81.21830749511719 -144.9619140625,81.21830749511719 C-103.0089111328125,81.21830749511719 -68.99893951416016,48.191402435302734 -68.99893951416016,7.450547695159912z"/></g></g></g></g><clipPath id="__lottie_element_104"><path d="M0,0 L430,0 L430,430 L0,430z"/></clipPath><filter id="__lottie_element_110" filterUnits="objectBoundingBox" x="0%" y="0%" width="100%" height="100%"><feComponentTransfer in="SourceGraphic"><feFuncA type="table" tableValues="1.0 0.0"/></feComponentTransfer></filter><mask id="__lottie_element_103_2" mask-type="alpha"><g filter="url(#__lottie_element_110)"><rect width="430" height="430" x="0" y="0" fill="#ffffff" opacity="0"/><use xmlns:ns1="http://www.w3.org/1999/xlink" ns1:href="#__lottie_element_103"/></g></mask><filter id="__lottie_element_111" filterUnits="objectBoundingBox" x="0%" y="0%" width="100%" height="100%"><feComponentTransfer in="SourceGraphic"><feFuncA type="table" tableValues="1.0 0.0"/></feComponentTransfer></filter><mask id="__lottie_element_91_2" mask-type="alpha"><g filter="url(#__lottie_element_111)"><rect width="430" height="430" x="0" y="0" fill="#ffffff" opacity="0"/><use xmlns:ns2="http://www.w3.org/1999/xlink" ns2:href="#__lottie_element_91"/></g></mask><filter id="__lottie_element_112" filterUnits="objectBoundingBox" x="0%" y="0%" width="100%" height="100%"><feComponentTransfer in="SourceGraphic"><feFuncA type="table" tableValues="1.0 0.0"/></feComponentTransfer></filter><mask id="__lottie_element_73_2" mask-type="alpha"><g filter="url(#__lottie_element_112)"><rect width="430" height="430" x="0" y="0" fill="#ffffff" opacity="0"/><use xmlns:ns3="http://www.w3.org/1999/xlink" ns3:href="#__lottie_element_73"/></g></mask></defs><g clip-path="url(#__lottie_element_59)"><g clip-path="url(#__lottie_element_61)" transform="matrix(1,0,0,1,0,0)" opacity="1" style="display: block;"><g clip-path="url(#__lottie_element_66)" transform="matrix(1,0,0,1,0,0)" opacity="1" style="display: block;"><g transform="matrix(0.7071067690849304,-0.7071067690849304,0.7071067690849304,0.7071067690849304,211.443603515625,204.69808959960938)" opacity="1" style="display: none;"><g opacity="1" transform="matrix(1,0,0,1,0,0)"><path class="primary" fill="rgb(21,198,45)" fill-opacity="1" d=" M-46.441524505615234,23.93741226196289 C-46.441524505615234,23.93741226196289 112.85563659667969,23.403900146484375 112.85563659667969,23.403900146484375 C112.85563659667969,23.403900146484375 112.85563659667969,40.04592514038086 112.85563659667969,40.04592514038086 C112.85563659667969,40.04592514038086 144.27206420898438,40.04592514038086 144.27206420898438,40.04592514038086 C144.27206420898438,40.04592514038086 144.27206420898438,29.705286026000977 144.27206420898438,29.705286026000977 C144.27206420898438,29.705286026000977 175.68907165527344,29.705286026000977 175.68907165527344,29.705286026000977 C175.68907165527344,29.705286026000977 175.68907165527344,40.04592514038086 175.68907165527344,40.04592514038086 C175.68907165527344,40.04592514038086 207.1056365966797,40.04592514038086 207.1056365966797,40.04592514038086 C207.1056365966797,40.04592514038086 207.1056365966797,23.403900146484375 207.1056365966797,23.403900146484375 C207.1056365966797,23.403900146484375 220.0756378173828,23.362634658813477 220.0756378173828,23.362634658813477 C226.21063232421875,23.362634658813477 231.12928771972656,18.81650733947754 231.12928771972656,12.68150806427002 C231.12928771972656,12.68150806427002 231.1830596923828,2.5996742248535156 231.1830596923828,2.5996742248535156 C231.1830596923828,-3.535325765609741 226.21022033691406,-8.508325576782227 220.0756378173828,-8.508325576782227 C220.0756378173828,-8.508325576782227 -46.441524505615234,-7.933122158050537 -46.441524505615234,-7.933122158050537"/></g></g><g transform="matrix(0.7071067690849304,-0.7071067690849304,0.7071067690849304,0.7071067690849304,211.443603515625,204.69808959960938)" opacity="1" style="display: none;"><g opacity="1" transform="matrix(1,0,0,1,0,0)"><path class="primary" fill="rgb(21,198,45)" fill-opacity="1" d=" M-35.37099838256836,25.871999740600586 C-35.37099838256836,25.871999740600586 112.8010025024414,25.569000244140625 112.8010025024414,25.569000244140625 C112.8010025024414,25.569000244140625 112.8010025024414,54.604000091552734 112.8010025024414,54.604000091552734 C112.8010025024414,54.604000091552734 144.2169952392578,54.604000091552734 144.2169952392578,54.604000091552734 C144.2169952392578,54.604000091552734 144.2169952392578,36.5629997253418 144.2169952392578,36.5629997253418 C144.2169952392578,36.5629997253418 175.63400268554688,36.5629997253418 175.63400268554688,36.5629997253418 C175.63400268554688,36.5629997253418 175.63400268554688,54.604000091552734 175.63400268554688,54.604000091552734 C175.63400268554688,54.604000091552734 207.05099487304688,54.604000091552734 207.05099487304688,54.604000091552734 C207.05099487304688,54.604000091552734 207.05099487304688,25.569000244140625 207.05099487304688,25.569000244140625 C207.05099487304688,25.569000244140625 220.02099609375,25.496999740600586 220.02099609375,25.496999740600586 C226.156005859375,25.496999740600586 231.1280059814453,20.52400016784668 231.1280059814453,14.388999938964844 C231.1280059814453,14.388999938964844 231.1280059814453,-0.17499999701976776 231.1280059814453,-0.17499999701976776 C231.1280059814453,-6.309999942779541 226.156005859375,-11.282999992370605 220.02099609375,-11.282999992370605 C220.02099609375,-11.282999992370605 -35.37099838256836,-10.907999992370605 -35.37099838256836,-10.907999992370605"/></g></g><g transform="matrix(0.7071067690849304,-0.7071067690849304,-0.7071067690849304,-0.7071067690849304,221.54391479492188,216.44540405273438)" opacity="1" style="display: block;"><g opacity="1" transform="matrix(1,0,0,1,0,0)"><path class="primary" fill="rgb(21,198,45)" fill-opacity="1" d=" M-35.98653030395508,25.764434814453125 C-35.98653030395508,25.764434814453125 112.80403900146484,25.448619842529297 112.80403900146484,25.448619842529297 C112.80403900146484,25.448619842529297 112.80403900146484,53.794559478759766 112.80403900146484,53.794559478759766 C112.80403900146484,53.794559478759766 144.22006225585938,53.794559478759766 144.22006225585938,53.794559478759766 C144.22006225585938,53.794559478759766 144.22006225585938,36.181705474853516 144.22006225585938,36.181705474853516 C144.22006225585938,36.181705474853516 175.63705444335938,36.181705474853516 175.63705444335938,36.181705474853516 C175.63705444335938,36.181705474853516 175.63705444335938,53.794559478759766 175.63705444335938,53.794559478759766 C175.63705444335938,53.794559478759766 207.0540313720703,53.794559478759766 207.0540313720703,53.794559478759766 C207.0540313720703,53.794559478759766 207.0540313720703,25.448619842529297 207.0540313720703,25.448619842529297 C207.0540313720703,25.448619842529297 220.02403259277344,25.378328323364258 220.02403259277344,25.378328323364258 C226.15904235839844,25.378328323364258 231.12806701660156,20.429061889648438 231.12806701660156,14.294062614440918 C231.12806701660156,14.294062614440918 231.1310577392578,-0.020726125687360764 231.1310577392578,-0.020726125687360764 C231.1310577392578,-6.155725955963135 226.1590118408203,-11.1287260055542 220.02403259277344,-11.1287260055542 C220.02403259277344,-11.1287260055542 -35.98653030395508,-10.742594718933105 -35.98653030395508,-10.742594718933105"/></g></g></g><g mask="url(#__lottie_element_73_2)" style="mix-blend-mode: multiply; display: block;"><g clip-path="url(#__lottie_element_70)" transform="matrix(1,0,0,1,0,0)" opacity="0.5"><g transform="matrix(0.7071067690849304,-0.7071067690849304,0.7071067690849304,0.7071067690849304,211.443603515625,204.69808959960938)" opacity="1" style="display: none;"><g opacity="1" transform="matrix(1,0,0,1,0,0)"><path class="primary" fill="rgb(21,198,45)" fill-opacity="1" d=" M-46.441524505615234,23.93741226196289 C-46.441524505615234,23.93741226196289 112.85563659667969,23.403900146484375 112.85563659667969,23.403900146484375 C112.85563659667969,23.403900146484375 112.85563659667969,40.04592514038086 112.85563659667969,40.04592514038086 C112.85563659667969,40.04592514038086 144.27206420898438,40.04592514038086 144.27206420898438,40.04592514038086 C144.27206420898438,40.04592514038086 144.27206420898438,29.705286026000977 144.27206420898438,29.705286026000977 C144.27206420898438,29.705286026000977 175.68907165527344,29.705286026000977 175.68907165527344,29.705286026000977 C175.68907165527344,29.705286026000977 175.68907165527344,40.04592514038086 175.68907165527344,40.04592514038086 C175.68907165527344,40.04592514038086 207.1056365966797,40.04592514038086 207.1056365966797,40.04592514038086 C207.1056365966797,40.04592514038086 207.1056365966797,23.403900146484375 207.1056365966797,23.403900146484375 C207.1056365966797,23.403900146484375 220.0756378173828,23.362634658813477 220.0756378173828,23.362634658813477 C226.21063232421875,23.362634658813477 231.12928771972656,18.81650733947754 231.12928771972656,12.68150806427002 C231.12928771972656,12.68150806427002 231.1830596923828,2.5996742248535156 231.1830596923828,2.5996742248535156 C231.1830596923828,-3.535325765609741 226.21022033691406,-8.508325576782227 220.0756378173828,-8.508325576782227 C220.0756378173828,-8.508325576782227 -46.441524505615234,-7.933122158050537 -46.441524505615234,-7.933122158050537"/></g></g><g transform="matrix(0.7071067690849304,-0.7071067690849304,0.7071067690849304,0.7071067690849304,211.443603515625,204.69808959960938)" opacity="1" style="display: none;"><g opacity="1" transform="matrix(1,0,0,1,0,0)"><path class="primary" fill="rgb(21,198,45)" fill-opacity="1" d=" M-35.37099838256836,25.871999740600586 C-35.37099838256836,25.871999740600586 112.8010025024414,25.569000244140625 112.8010025024414,25.569000244140625 C112.8010025024414,25.569000244140625 112.8010025024414,54.604000091552734 112.8010025024414,54.604000091552734 C112.8010025024414,54.604000091552734 144.2169952392578,54.604000091552734 144.2169952392578,54.604000091552734 C144.2169952392578,54.604000091552734 144.2169952392578,36.5629997253418 144.2169952392578,36.5629997253418 C144.2169952392578,36.5629997253418 175.63400268554688,36.5629997253418 175.63400268554688,36.5629997253418 C175.63400268554688,36.5629997253418 175.63400268554688,54.604000091552734 175.63400268554688,54.604000091552734 C175.63400268554688,54.604000091552734 207.05099487304688,54.604000091552734 207.05099487304688,54.604000091552734 C207.05099487304688,54.604000091552734 207.05099487304688,25.569000244140625 207.05099487304688,25.569000244140625 C207.05099487304688,25.569000244140625 220.02099609375,25.496999740600586 220.02099609375,25.496999740600586 C226.156005859375,25.496999740600586 231.1280059814453,20.52400016784668 231.1280059814453,14.388999938964844 C231.1280059814453,14.388999938964844 231.1280059814453,-0.17499999701976776 231.1280059814453,-0.17499999701976776 C231.1280059814453,-6.309999942779541 226.156005859375,-11.282999992370605 220.02099609375,-11.282999992370605 C220.02099609375,-11.282999992370605 -35.37099838256836,-10.907999992370605 -35.37099838256836,-10.907999992370605"/></g></g><g transform="matrix(0.7071067690849304,-0.7071067690849304,-0.7071067690849304,-0.7071067690849304,221.54391479492188,216.44540405273438)" opacity="1" style="display: block;"><g opacity="1" transform="matrix(1,0,0,1,0,0)"><path class="primary" fill="rgb(21,198,45)" fill-opacity="1" d=" M-35.98653030395508,25.764434814453125 C-35.98653030395508,25.764434814453125 112.80403900146484,25.448619842529297 112.80403900146484,25.448619842529297 C112.80403900146484,25.448619842529297 112.80403900146484,53.794559478759766 112.80403900146484,53.794559478759766 C112.80403900146484,53.794559478759766 144.22006225585938,53.794559478759766 144.22006225585938,53.794559478759766 C144.22006225585938,53.794559478759766 144.22006225585938,36.181705474853516 144.22006225585938,36.181705474853516 C144.22006225585938,36.181705474853516 175.63705444335938,36.181705474853516 175.63705444335938,36.181705474853516 C175.63705444335938,36.181705474853516 175.63705444335938,53.794559478759766 175.63705444335938,53.794559478759766 C175.63705444335938,53.794559478759766 207.0540313720703,53.794559478759766 207.0540313720703,53.794559478759766 C207.0540313720703,53.794559478759766 207.0540313720703,25.448619842529297 207.0540313720703,25.448619842529297 C207.0540313720703,25.448619842529297 220.02403259277344,25.378328323364258 220.02403259277344,25.378328323364258 C226.15904235839844,25.378328323364258 231.12806701660156,20.429061889648438 231.12806701660156,14.294062614440918 C231.12806701660156,14.294062614440918 231.1310577392578,-0.020726125687360764 231.1310577392578,-0.020726125687360764 C231.1310577392578,-6.155725955963135 226.1590118408203,-11.1287260055542 220.02403259277344,-11.1287260055542 C220.02403259277344,-11.1287260055542 -35.98653030395508,-10.742594718933105 -35.98653030395508,-10.742594718933105"/></g></g></g></g><g transform="matrix(0.7071067690849304,-0.7071067690849304,0.7071067690849304,0.7071067690849304,211.443603515625,204.69808959960938)" opacity="1" style="display: none;"><g opacity="1" transform="matrix(1,0,0,1,0,0)"><path stroke-linecap="butt" stroke-linejoin="miter" fill-opacity="0" stroke-miterlimit="4" class="primary" stroke="rgb(21,198,45)" stroke-opacity="1" stroke-width="2" d="M0 0"/></g><path class="primary" fill="rgb(21,198,45)" fill-opacity="1" d=" M-68.94692993164062,12.690775871276855 C-68.94692993164062,36.78213119506836 -102.95650482177734,56.311744689941406 -144.9095001220703,56.311744689941406 C-186.8625030517578,56.311744689941406 -220.87193298339844,36.78213119506836 -220.87193298339844,12.690775871276855 C-220.87193298339844,-11.400578498840332 -186.8625030517578,-30.9300479888916 -144.9095001220703,-30.9300479888916 C-102.95650482177734,-30.9300479888916 -68.94692993164062,-11.400578498840332 -68.94692993164062,12.690775871276855z M-99.66650390625,12.691349029541016 C-99.66650390625,-1.65712308883667 -119.9225082397461,-13.290008544921875 -144.9095001220703,-13.290008544921875 C-169.89649963378906,-13.290008544921875 -190.15293884277344,-1.65769624710083 -190.15293884277344,12.690775871276855 C-190.15293884277344,27.039247512817383 -169.89649963378906,38.67170715332031 -144.9095001220703,38.67170715332031 C-119.9225082397461,38.67170715332031 -99.66650390625,27.039819717407227 -99.66650390625,12.691349029541016z"/><path class="primary" fill="rgb(21,198,45)" fill-opacity="0.5" d=" M-68.94692993164062,12.690775871276855 C-68.94692993164062,36.78213119506836 -102.95650482177734,56.311744689941406 -144.9095001220703,56.311744689941406 C-186.8625030517578,56.311744689941406 -220.87193298339844,36.78213119506836 -220.87193298339844,12.690775871276855 C-220.87193298339844,-11.400578498840332 -186.8625030517578,-30.9300479888916 -144.9095001220703,-30.9300479888916 C-102.95650482177734,-30.9300479888916 -68.94692993164062,-11.400578498840332 -68.94692993164062,12.690775871276855z M-99.66650390625,12.691349029541016 C-99.66650390625,-1.65712308883667 -119.9225082397461,-13.290008544921875 -144.9095001220703,-13.290008544921875 C-169.89649963378906,-13.290008544921875 -190.15293884277344,-1.65769624710083 -190.15293884277344,12.690775871276855 C-190.15293884277344,27.039247512817383 -169.89649963378906,38.67170715332031 -144.9095001220703,38.67170715332031 C-119.9225082397461,38.67170715332031 -99.66650390625,27.039819717407227 -99.66650390625,12.691349029541016z" style="mix-blend-mode: multiply;"/><g opacity="1" transform="matrix(1,0,0,1,0,0)"/></g><g transform="matrix(0.7071067690849304,-0.7071067690849304,0.7071067690849304,0.7071067690849304,211.443603515625,204.69808959960938)" opacity="1" style="display: none;"><g opacity="1" transform="matrix(1,0,0,1,0,0)"><path stroke-linecap="butt" stroke-linejoin="miter" fill-opacity="0" stroke-miterlimit="4" class="primary" stroke="rgb(21,198,45)" stroke-opacity="1" stroke-width="2" d="M0 0"/></g><g opacity="1" transform="matrix(1,0,0,1,0,0)"><path class="primary" fill="rgb(21,198,45)" fill-opacity="1" d=" M-69.00199890136719,7.142000198364258 C-69.00199890136719,-34.59199905395508 -103.01200103759766,-68.42500305175781 -144.96499633789062,-68.42500305175781 C-186.91799926757812,-68.42500305175781 -220.927001953125,-34.59199905395508 -220.927001953125,7.142000198364258 C-220.927001953125,48.875999450683594 -186.91799926757812,82.70800018310547 -144.96499633789062,82.70800018310547 C-103.01200103759766,82.70800018310547 -69.00199890136719,48.875999450683594 -69.00199890136719,7.142000198364258z M-99.72200012207031,7.142000198364258 C-99.72200012207031,31.999000549316406 -119.97799682617188,52.14799880981445 -144.96499633789062,52.14799880981445 C-169.95199584960938,52.14799880981445 -190.20799255371094,31.999000549316406 -190.20799255371094,7.142000198364258 C-190.20799255371094,-17.71500015258789 -169.95199584960938,-37.8650016784668 -144.96499633789062,-37.8650016784668 C-119.97799682617188,-37.8650016784668 -99.72200012207031,-17.71500015258789 -99.72200012207031,7.142000198364258z"/><path class="primary" fill="rgb(21,198,45)" fill-opacity="0.5" d=" M-69.00199890136719,7.142000198364258 C-69.00199890136719,-34.59199905395508 -103.01200103759766,-68.42500305175781 -144.96499633789062,-68.42500305175781 C-186.91799926757812,-68.42500305175781 -220.927001953125,-34.59199905395508 -220.927001953125,7.142000198364258 C-220.927001953125,48.875999450683594 -186.91799926757812,82.70800018310547 -144.96499633789062,82.70800018310547 C-103.01200103759766,82.70800018310547 -69.00199890136719,48.875999450683594 -69.00199890136719,7.142000198364258z M-99.72200012207031,7.142000198364258 C-99.72200012207031,31.999000549316406 -119.97799682617188,52.14799880981445 -144.96499633789062,52.14799880981445 C-169.95199584960938,52.14799880981445 -190.20799255371094,31.999000549316406 -190.20799255371094,7.142000198364258 C-190.20799255371094,-17.71500015258789 -169.95199584960938,-37.8650016784668 -144.96499633789062,-37.8650016784668 C-119.97799682617188,-37.8650016784668 -99.72200012207031,-17.71500015258789 -99.72200012207031,7.142000198364258z" style="mix-blend-mode: multiply;"/></g></g><g transform="matrix(0.7071067690849304,-0.7071067690849304,-0.7071067690849304,-0.7071067690849304,221.54391479492188,216.44540405273438)" opacity="1" style="display: block;"><g opacity="1" transform="matrix(1,0,0,1,0,0)"><path stroke-linecap="butt" stroke-linejoin="miter" fill-opacity="0" stroke-miterlimit="4" class="primary" stroke="rgb(21,198,45)" stroke-opacity="1" stroke-width="2" d="M0 0"/></g><g opacity="1" transform="matrix(1,0,0,1,0,0)"><path class="primary" fill="rgb(21,198,45)" fill-opacity="1" d=" M-69.00133514404297,6.857186794281006 C-69.00133514404297,-33.883670806884766 -103.01131439208984,-66.91157531738281 -144.9643096923828,-66.91157531738281 C-186.9173126220703,-66.91157531738281 -220.92633056640625,-33.883670806884766 -220.92633056640625,6.857186794281006 C-220.92633056640625,47.59804153442383 -186.9173126220703,80.62494659423828 -144.9643096923828,80.62494659423828 C-103.01131439208984,80.62494659423828 -69.00133514404297,47.59804153442383 -69.00133514404297,6.857186794281006z M-99.7213134765625,6.857186794281006 C-99.7213134765625,31.122676849365234 -119.97731018066406,50.792171478271484 -144.9643096923828,50.792171478271484 C-169.95130920410156,50.792171478271484 -190.20730590820312,31.122676849365234 -190.20730590820312,6.857186794281006 C-190.20730590820312,-17.40830421447754 -169.95130920410156,-37.07879638671875 -144.9643096923828,-37.07879638671875 C-119.97731018066406,-37.07879638671875 -99.7213134765625,-17.40830421447754 -99.7213134765625,6.857186794281006z"/><path class="primary" fill="rgb(21,198,45)" fill-opacity="0.5" d=" M-69.00133514404297,6.857186794281006 C-69.00133514404297,-33.883670806884766 -103.01131439208984,-66.91157531738281 -144.9643096923828,-66.91157531738281 C-186.9173126220703,-66.91157531738281 -220.92633056640625,-33.883670806884766 -220.92633056640625,6.857186794281006 C-220.92633056640625,47.59804153442383 -186.9173126220703,80.62494659423828 -144.9643096923828,80.62494659423828 C-103.01131439208984,80.62494659423828 -69.00133514404297,47.59804153442383 -69.00133514404297,6.857186794281006z M-99.7213134765625,6.857186794281006 C-99.7213134765625,31.122676849365234 -119.97731018066406,50.792171478271484 -144.9643096923828,50.792171478271484 C-169.95130920410156,50.792171478271484 -190.20730590820312,31.122676849365234 -190.20730590820312,6.857186794281006 C-190.20730590820312,-17.40830421447754 -169.95130920410156,-37.07879638671875 -144.9643096923828,-37.07879638671875 C-119.97731018066406,-37.07879638671875 -99.7213134765625,-17.40830421447754 -99.7213134765625,6.857186794281006z" style="mix-blend-mode: multiply;"/></g></g><g transform="matrix(1,0,0,1,215,215)" opacity="1" style="display: none;"><g opacity="1" transform="matrix(1,0,0,1,0,0)"><path stroke-linecap="butt" stroke-linejoin="miter" fill-opacity="0" stroke-miterlimit="4" class="primary" stroke="rgb(21,198,45)" stroke-opacity="1" stroke-width="2" d="M0 0"/></g><g opacity="1" transform="matrix(1,0,0,1,0,0)"><path class="primary" fill="rgb(21,198,45)" fill-opacity="1" d=" M-51.10280227661133,36.61307907104492 C-61.810791015625,30.950525283813477 -101.74629211425781,41.916351318359375 -129.97474670410156,68.247802734375 C-159.82400512695312,95.90464782714844 -166.0780029296875,137.13258361816406 -161.7629852294922,142.79946899414062 C-161.73887634277344,142.831298828125 -152.9243927001953,151.4962921142578 -152.948486328125,151.46446228027344 C-157.26881408691406,145.7373046875 -150.9054718017578,104.63296508789062 -120.59200286865234,76.62161254882812 C-91.46405792236328,49.571754455566406 -50.91419219970703,40.682273864746094 -41.95390701293945,45.619712829589844 C-41.928836822509766,45.633209228515625 -51.07773208618164,36.62657928466797 -51.10280227661133,36.61307907104492z"/><path class="primary" fill="rgb(21,198,45)" fill-opacity="0.5" d=" M-51.10280227661133,36.61307907104492 C-61.810791015625,30.950525283813477 -101.74629211425781,41.916351318359375 -129.97474670410156,68.247802734375 C-159.82400512695312,95.90464782714844 -166.0780029296875,137.13258361816406 -161.7629852294922,142.79946899414062 C-161.73887634277344,142.831298828125 -152.9243927001953,151.4962921142578 -152.948486328125,151.46446228027344 C-157.26881408691406,145.7373046875 -150.9054718017578,104.63296508789062 -120.59200286865234,76.62161254882812 C-91.46405792236328,49.571754455566406 -50.91419219970703,40.682273864746094 -41.95390701293945,45.619712829589844 C-41.928836822509766,45.633209228515625 -51.07773208618164,36.62657928466797 -51.10280227661133,36.61307907104492z" style="mix-blend-mode: multiply;"/></g></g><g transform="matrix(1,0,0,1,215,215)" opacity="1" style="display: none;"><g opacity="1" transform="matrix(1,0,0,1,0,0)"><path stroke-linecap="butt" stroke-linejoin="miter" fill-opacity="0" stroke-miterlimit="4" class="primary" stroke="rgb(21,198,45)" stroke-opacity="1" stroke-width="2" d="M0 0"/></g><g opacity="1" transform="matrix(1,0,0,1,0,0)"><path class="primary" fill="rgb(21,198,45)" fill-opacity="1" d=" M-49.84989929199219,39.404659271240234 C-70.16001892089844,28.664342880249023 -111.72801971435547,14.8920316696167 -148.18075561523438,47.54938888549805 C-189.37921142578125,84.41278076171875 -170.4073944091797,131.42274475097656 -162.2229766845703,142.17129516601562 C-162.17726135253906,142.2316436767578 -160.70294189453125,143.87078857421875 -160.7486572265625,143.8104248046875 C-168.943115234375,132.94757080078125 -187.99539184570312,86.03482818603516 -146.05992126464844,48.42999267578125 C-107.98179626464844,14.253975868225098 -65.40904998779297,31.654279708862305 -48.41383743286133,41.019248962402344 C-48.36628723144531,41.04485321044922 -49.80234909057617,39.43026351928711 -49.84989929199219,39.404659271240234z"/><path class="primary" fill="rgb(21,198,45)" fill-opacity="0.5" d=" M-49.84989929199219,39.404659271240234 C-70.16001892089844,28.664342880249023 -111.72801971435547,14.8920316696167 -148.18075561523438,47.54938888549805 C-189.37921142578125,84.41278076171875 -170.4073944091797,131.42274475097656 -162.2229766845703,142.17129516601562 C-162.17726135253906,142.2316436767578 -160.70294189453125,143.87078857421875 -160.7486572265625,143.8104248046875 C-168.943115234375,132.94757080078125 -187.99539184570312,86.03482818603516 -146.05992126464844,48.42999267578125 C-107.98179626464844,14.253975868225098 -65.40904998779297,31.654279708862305 -48.41383743286133,41.019248962402344 C-48.36628723144531,41.04485321044922 -49.80234909057617,39.43026351928711 -49.84989929199219,39.404659271240234z" style="mix-blend-mode: multiply;"/></g></g><g transform="matrix(1,0,0,1,215,215)" opacity="1" style="display: none;"><g opacity="1" transform="matrix(1,0,0,1,0,0)"><path stroke-linecap="butt" stroke-linejoin="miter" fill-opacity="0" stroke-miterlimit="4" class="primary" stroke="rgb(21,198,45)" stroke-opacity="1" stroke-width="2" d="M0 0"/></g><g opacity="1" transform="matrix(1,0,0,1,0,0)"><path class="primary" fill="rgb(21,198,45)" fill-opacity="1" d=" M-50.91387176513672,37.034423828125 C-63.07246017456055,30.605506896972656 -103.25314331054688,37.83573532104492 -132.72422790527344,65.12242126464844 C-164.2871551513672,94.16949462890625 -165.55699157714844,139.32479858398438 -160.65818786621094,145.7589569091797 C-160.6307373046875,145.7948760986328 -151.04505920410156,155.98252868652344 -151.07249450683594,155.94659423828125 C-155.97760009765625,149.44381713867188 -156.50601196289062,101.8244400024414 -124.4377670288086,72.36439514160156 C-93.95792388916016,44.238014221191406 -53.103092193603516,39.31892013549805 -42.929664611816406,44.92514419555664 C-42.90115737915039,44.9409294128418 -50.8853645324707,37.04926681518555 -50.91387176513672,37.034423828125z"/><path class="primary" fill="rgb(21,198,45)" fill-opacity="0.5" d=" M-50.91387176513672,37.034423828125 C-63.07246017456055,30.605506896972656 -103.25314331054688,37.83573532104492 -132.72422790527344,65.12242126464844 C-164.2871551513672,94.16949462890625 -165.55699157714844,139.32479858398438 -160.65818786621094,145.7589569091797 C-160.6307373046875,145.7948760986328 -151.04505920410156,155.98252868652344 -151.07249450683594,155.94659423828125 C-155.97760009765625,149.44381713867188 -156.50601196289062,101.8244400024414 -124.4377670288086,72.36439514160156 C-93.95792388916016,44.238014221191406 -53.103092193603516,39.31892013549805 -42.929664611816406,44.92514419555664 C-42.90115737915039,44.9409294128418 -50.8853645324707,37.04926681518555 -50.91387176513672,37.034423828125z" style="mix-blend-mode: multiply;"/></g></g><g transform="matrix(1,0,0,1,215,215)" opacity="1" style="display: block;"><g opacity="1" transform="matrix(1,0,0,1,0,0)"><path stroke-linecap="butt" stroke-linejoin="miter" fill-opacity="0" stroke-miterlimit="4" class="primary" stroke="rgb(21,198,45)" stroke-opacity="1" stroke-width="2" d="M0 0"/></g><g opacity="1" transform="matrix(1,0,0,1,0,0)"><path class="primary" fill="rgb(21,198,45)" fill-opacity="1" d=" M-49.67244338989258,39.800025939941406 C-71.34252166748047,28.340560913085938 -113.14170837402344,11.064618110656738 -150.75927734375,44.617897033691406 C-193.56507873535156,82.78520965576172 -171.0044708251953,130.71060180664062 -162.27203369140625,142.1788787841797 C-162.2232666015625,142.24327087402344 -161.78851318359375,142.9033966064453 -161.83729553222656,142.83900451660156 C-170.58042907714844,131.24879455566406 -193.24839782714844,83.40079498291016 -149.6669158935547,44.437232971191406 C-110.32118225097656,9.251943588256836 -67.4619369506836,30.37564468383789 -49.32875061035156,40.367698669433594 C-49.27800369262695,40.395023345947266 -49.62169647216797,39.82734680175781 -49.67244338989258,39.800025939941406z"/><path class="primary" fill="rgb(21,198,45)" fill-opacity="0.5" d=" M-49.67244338989258,39.800025939941406 C-71.34252166748047,28.340560913085938 -113.14170837402344,11.064618110656738 -150.75927734375,44.617897033691406 C-193.56507873535156,82.78520965576172 -171.0044708251953,130.71060180664062 -162.27203369140625,142.1788787841797 C-162.2232666015625,142.24327087402344 -161.78851318359375,142.9033966064453 -161.83729553222656,142.83900451660156 C-170.58042907714844,131.24879455566406 -193.24839782714844,83.40079498291016 -149.6669158935547,44.437232971191406 C-110.32118225097656,9.251943588256836 -67.4619369506836,30.37564468383789 -49.32875061035156,40.367698669433594 C-49.27800369262695,40.395023345947266 -49.62169647216797,39.82734680175781 -49.67244338989258,39.800025939941406z" style="mix-blend-mode: multiply;"/></g></g><g clip-path="url(#__lottie_element_84)" transform="matrix(1,0,0,1,0,0)" opacity="1" style="display: block;"><g transform="matrix(0.7071067690849304,-0.7071067690849304,0.7071067690849304,0.7071067690849304,211.443603515625,204.69808959960938)" opacity="1" style="display: none;"><path class="primary" fill="rgb(21,198,45)" fill-opacity="1" d=" M-80.31022644042969,-19.59163475036621 C-80.31022644042969,-19.59163475036621 -74.7319564819336,-10.743475914001465 -74.8147964477539,7.451330661773682 C-74.89879608154297,26.40416145324707 -80.291015625,33.918338775634766 -80.291015625,33.918338775634766 C-80.291015625,33.918338775634766 -47.88821792602539,34.15253829956055 -47.88821792602539,34.15253829956055 C-40.96521759033203,34.15253829956055 -35.35221862792969,28.538965225219727 -35.35221862792969,21.615964889526367 C-35.35221862792969,21.615964889526367 -35.35221862792969,21.615964889526367 -35.35221862792969,21.615964889526367 C-35.35221862792969,21.615964889526367 -35.37099838256836,-6.671320915222168 -35.37099838256836,-6.671320915222168 C-35.37099838256836,-6.671320915222168 -35.37099838256836,-6.671320915222168 -35.37099838256836,-6.671320915222168 C-35.37099838256836,-13.594321250915527 -40.98400115966797,-19.207321166992188 -47.90700149536133,-19.207321166992188 C-47.90700149536133,-19.207321166992188 -80.31022644042969,-19.59163475036621 -80.31022644042969,-19.59163475036621z"/><g opacity="1" transform="matrix(1,0,0,1,0,0)"/></g><g transform="matrix(0.7071067690849304,-0.7071067690849304,0.7071067690849304,0.7071067690849304,211.443603515625,204.69808959960938)" opacity="1" style="display: none;"><path class="primary" fill="rgb(21,198,45)" fill-opacity="1" d=" M-83.70600128173828,-30.30699920654297 C-83.70600128173828,-30.30699920654297 -74.43399810791016,-19.19300079345703 -74.51300048828125,7.677999973297119 C-74.59700012207031,36.138999938964844 -83.70600128173828,44.20000076293945 -83.70600128173828,44.20000076293945 C-83.70600128173828,44.20000076293945 -47.90700149536133,44.736000061035156 -47.90700149536133,44.736000061035156 C-40.98400115966797,44.736000061035156 -35.37099838256836,39.12200164794922 -35.37099838256836,32.19900131225586 C-35.37099838256836,32.19900131225586 -35.37099838256836,32.19900131225586 -35.37099838256836,32.19900131225586 C-35.37099838256836,32.19900131225586 -35.37099838256836,-17.236000061035156 -35.37099838256836,-17.236000061035156 C-35.37099838256836,-17.236000061035156 -35.37099838256836,-17.236000061035156 -35.37099838256836,-17.236000061035156 C-35.37099838256836,-24.159000396728516 -40.98400115966797,-29.77199935913086 -47.90700149536133,-29.77199935913086 C-47.90700149536133,-29.77199935913086 -83.70600128173828,-30.30699920654297 -83.70600128173828,-30.30699920654297z"/><g opacity="1" transform="matrix(1,0,0,1,0,0)"/></g><g transform="matrix(0.7071067690849304,-0.7071067690849304,-0.7071067690849304,-0.7071067690849304,221.54391479492188,216.44540405273438)" opacity="1" style="display: block;"><path class="primary" fill="rgb(21,198,45)" fill-opacity="1" d=" M-83.5171890258789,-29.711217880249023 C-83.5171890258789,-29.711217880249023 -74.45056915283203,-18.72319984436035 -74.52977752685547,7.6653971672058105 C-74.61377716064453,35.59773635864258 -83.51612091064453,43.628334045410156 -83.51612091064453,43.628334045410156 C-83.51612091064453,43.628334045410156 -47.90595626831055,44.147552490234375 -47.90595626831055,44.147552490234375 C-40.98295593261719,44.147552490234375 -35.369956970214844,38.53357696533203 -35.369956970214844,31.610576629638672 C-35.369956970214844,31.610576629638672 -35.369956970214844,31.610576629638672 -35.369956970214844,31.610576629638672 C-35.369956970214844,31.610576629638672 -35.37099838256836,-16.648595809936523 -35.37099838256836,-16.648595809936523 C-35.37099838256836,-16.648595809936523 -35.37099838256836,-16.648595809936523 -35.37099838256836,-16.648595809936523 C-35.37099838256836,-23.571596145629883 -40.98400115966797,-29.18459701538086 -47.90700149536133,-29.18459701538086 C-47.90700149536133,-29.18459701538086 -83.5171890258789,-29.711217880249023 -83.5171890258789,-29.711217880249023z"/><g opacity="1" transform="matrix(1,0,0,1,0,0)"/></g></g><g mask="url(#__lottie_element_91_2)" style="mix-blend-mode: multiply; display: block;"><g clip-path="url(#__lottie_element_88)" transform="matrix(1,0,0,1,0,0)" opacity="0.5"><g transform="matrix(0.7071067690849304,-0.7071067690849304,0.7071067690849304,0.7071067690849304,211.443603515625,204.69808959960938)" opacity="1" style="display: none;"><path class="primary" fill="rgb(21,198,45)" fill-opacity="1" d=" M-80.31022644042969,-19.59163475036621 C-80.31022644042969,-19.59163475036621 -74.7319564819336,-10.743475914001465 -74.8147964477539,7.451330661773682 C-74.89879608154297,26.40416145324707 -80.291015625,33.918338775634766 -80.291015625,33.918338775634766 C-80.291015625,33.918338775634766 -47.88821792602539,34.15253829956055 -47.88821792602539,34.15253829956055 C-40.96521759033203,34.15253829956055 -35.35221862792969,28.538965225219727 -35.35221862792969,21.615964889526367 C-35.35221862792969,21.615964889526367 -35.35221862792969,21.615964889526367 -35.35221862792969,21.615964889526367 C-35.35221862792969,21.615964889526367 -35.37099838256836,-6.671320915222168 -35.37099838256836,-6.671320915222168 C-35.37099838256836,-6.671320915222168 -35.37099838256836,-6.671320915222168 -35.37099838256836,-6.671320915222168 C-35.37099838256836,-13.594321250915527 -40.98400115966797,-19.207321166992188 -47.90700149536133,-19.207321166992188 C-47.90700149536133,-19.207321166992188 -80.31022644042969,-19.59163475036621 -80.31022644042969,-19.59163475036621z"/><g opacity="1" transform="matrix(1,0,0,1,0,0)"/></g><g transform="matrix(0.7071067690849304,-0.7071067690849304,0.7071067690849304,0.7071067690849304,211.443603515625,204.69808959960938)" opacity="1" style="display: none;"><path class="primary" fill="rgb(21,198,45)" fill-opacity="1" d=" M-83.70600128173828,-30.30699920654297 C-83.70600128173828,-30.30699920654297 -74.43399810791016,-19.19300079345703 -74.51300048828125,7.677999973297119 C-74.59700012207031,36.138999938964844 -83.70600128173828,44.20000076293945 -83.70600128173828,44.20000076293945 C-83.70600128173828,44.20000076293945 -47.90700149536133,44.736000061035156 -47.90700149536133,44.736000061035156 C-40.98400115966797,44.736000061035156 -35.37099838256836,39.12200164794922 -35.37099838256836,32.19900131225586 C-35.37099838256836,32.19900131225586 -35.37099838256836,32.19900131225586 -35.37099838256836,32.19900131225586 C-35.37099838256836,32.19900131225586 -35.37099838256836,-17.236000061035156 -35.37099838256836,-17.236000061035156 C-35.37099838256836,-17.236000061035156 -35.37099838256836,-17.236000061035156 -35.37099838256836,-17.236000061035156 C-35.37099838256836,-24.159000396728516 -40.98400115966797,-29.77199935913086 -47.90700149536133,-29.77199935913086 C-47.90700149536133,-29.77199935913086 -83.70600128173828,-30.30699920654297 -83.70600128173828,-30.30699920654297z"/><g opacity="1" transform="matrix(1,0,0,1,0,0)"/></g><g transform="matrix(0.7071067690849304,-0.7071067690849304,-0.7071067690849304,-0.7071067690849304,221.54391479492188,216.44540405273438)" opacity="1" style="display: block;"><path class="primary" fill="rgb(21,198,45)" fill-opacity="1" d=" M-83.5171890258789,-29.711217880249023 C-83.5171890258789,-29.711217880249023 -74.45056915283203,-18.72319984436035 -74.52977752685547,7.6653971672058105 C-74.61377716064453,35.59773635864258 -83.51612091064453,43.628334045410156 -83.51612091064453,43.628334045410156 C-83.51612091064453,43.628334045410156 -47.90595626831055,44.147552490234375 -47.90595626831055,44.147552490234375 C-40.98295593261719,44.147552490234375 -35.369956970214844,38.53357696533203 -35.369956970214844,31.610576629638672 C-35.369956970214844,31.610576629638672 -35.369956970214844,31.610576629638672 -35.369956970214844,31.610576629638672 C-35.369956970214844,31.610576629638672 -35.37099838256836,-16.648595809936523 -35.37099838256836,-16.648595809936523 C-35.37099838256836,-16.648595809936523 -35.37099838256836,-16.648595809936523 -35.37099838256836,-16.648595809936523 C-35.37099838256836,-23.571596145629883 -40.98400115966797,-29.18459701538086 -47.90700149536133,-29.18459701538086 C-47.90700149536133,-29.18459701538086 -83.5171890258789,-29.711217880249023 -83.5171890258789,-29.711217880249023z"/><g opacity="1" transform="matrix(1,0,0,1,0,0)"/></g></g></g><g clip-path="url(#__lottie_element_96)" transform="matrix(1,0,0,1,0,0)" opacity="1" style="display: block;"><g transform="matrix(0.7071067690849304,-0.7071067690849304,0.7071067690849304,0.7071067690849304,211.443603515625,204.69808959960938)" opacity="1" style="display: none;"><g opacity="1" transform="matrix(1,0,0,1,0,0)"><path class="primary" fill="rgb(21,198,45)" fill-opacity="1" d=" M-68.99005126953125,2.018951177597046 C-68.99005126953125,26.110305786132812 -102.99961853027344,45.63991928100586 -144.95262145996094,45.63991928100586 C-186.90562438964844,45.63991928100586 -220.91505432128906,26.110305786132812 -220.91505432128906,2.018951177597046 C-220.91505432128906,-22.072402954101562 -186.90562438964844,-41.601871490478516 -144.95262145996094,-41.601871490478516 C-102.99961853027344,-41.601871490478516 -68.99005126953125,-22.072402954101562 -68.99005126953125,2.018951177597046z M-99.7096176147461,2.019524335861206 C-99.7096176147461,-12.328947067260742 -119.96562194824219,-23.96183204650879 -144.95262145996094,-23.96183204650879 C-169.9396209716797,-23.96183204650879 -190.19561767578125,-12.329520225524902 -190.19561767578125,2.018951177597046 C-190.19561767578125,16.367422103881836 -169.9396209716797,27.999881744384766 -144.95262145996094,27.999881744384766 C-119.96562194824219,27.999881744384766 -99.7096176147461,16.367996215820312 -99.7096176147461,2.019524335861206z"/></g></g><g transform="matrix(0.7071067690849304,-0.7071067690849304,0.7071067690849304,0.7071067690849304,211.443603515625,204.69808959960938)" opacity="1" style="display: none;"><g opacity="1" transform="matrix(1,0,0,1,0,0)"><path class="primary" fill="rgb(21,198,45)" fill-opacity="1" d=" M-69.00199890136719,7.142000198364258 C-69.00199890136719,-34.59199905395508 -103.01200103759766,-68.42500305175781 -144.96499633789062,-68.42500305175781 C-186.91799926757812,-68.42500305175781 -220.927001953125,-34.59199905395508 -220.927001953125,7.142000198364258 C-220.927001953125,48.875999450683594 -186.91799926757812,82.70800018310547 -144.96499633789062,82.70800018310547 C-103.01200103759766,82.70800018310547 -69.00199890136719,48.875999450683594 -69.00199890136719,7.142000198364258z M-99.72200012207031,7.142000198364258 C-99.72200012207031,31.999000549316406 -119.97799682617188,52.14799880981445 -144.96499633789062,52.14799880981445 C-169.95199584960938,52.14799880981445 -190.20799255371094,31.999000549316406 -190.20799255371094,7.142000198364258 C-190.20799255371094,-17.71500015258789 -169.95199584960938,-37.8650016784668 -144.96499633789062,-37.8650016784668 C-119.97799682617188,-37.8650016784668 -99.72200012207031,-17.71500015258789 -99.72200012207031,7.142000198364258z"/></g></g><g transform="matrix(0.7071067690849304,-0.7071067690849304,-0.7071067690849304,-0.7071067690849304,221.54391479492188,216.44540405273438)" opacity="1" style="display: block;"><g opacity="1" transform="matrix(1,0,0,1,0,0)"><path class="primary" fill="rgb(21,198,45)" fill-opacity="1" d=" M-68.99893951416016,7.450547695159912 C-68.99893951416016,-33.29030990600586 -103.0089111328125,-66.3182144165039 -144.9619140625,-66.3182144165039 C-186.9149169921875,-66.3182144165039 -220.92393493652344,-33.29030990600586 -220.92393493652344,7.450547695159912 C-220.92393493652344,48.191402435302734 -186.9149169921875,81.21830749511719 -144.9619140625,81.21830749511719 C-103.0089111328125,81.21830749511719 -68.99893951416016,48.191402435302734 -68.99893951416016,7.450547695159912z M-99.71891784667969,7.450547695159912 C-99.71891784667969,31.71603775024414 -119.97491455078125,51.38553237915039 -144.9619140625,51.38553237915039 C-169.94891357421875,51.38553237915039 -190.20494079589844,31.71603775024414 -190.20494079589844,7.450547695159912 C-190.20494079589844,-16.814943313598633 -169.94891357421875,-36.485435485839844 -144.9619140625,-36.485435485839844 C-119.97491455078125,-36.485435485839844 -99.71891784667969,-16.814943313598633 -99.71891784667969,7.450547695159912z"/></g></g></g><g mask="url(#__lottie_element_103_2)" style="mix-blend-mode: multiply; display: block;"><g clip-path="url(#__lottie_element_100)" transform="matrix(1,0,0,1,0,0)" opacity="0.5"><g transform="matrix(0.7071067690849304,-0.7071067690849304,0.7071067690849304,0.7071067690849304,211.443603515625,204.69808959960938)" opacity="1" style="display: none;"><g opacity="1" transform="matrix(1,0,0,1,0,0)"><path class="primary" fill="rgb(21,198,45)" fill-opacity="1" d=" M-68.99005126953125,2.018951177597046 C-68.99005126953125,26.110305786132812 -102.99961853027344,45.63991928100586 -144.95262145996094,45.63991928100586 C-186.90562438964844,45.63991928100586 -220.91505432128906,26.110305786132812 -220.91505432128906,2.018951177597046 C-220.91505432128906,-22.072402954101562 -186.90562438964844,-41.601871490478516 -144.95262145996094,-41.601871490478516 C-102.99961853027344,-41.601871490478516 -68.99005126953125,-22.072402954101562 -68.99005126953125,2.018951177597046z M-99.7096176147461,2.019524335861206 C-99.7096176147461,-12.328947067260742 -119.96562194824219,-23.96183204650879 -144.95262145996094,-23.96183204650879 C-169.9396209716797,-23.96183204650879 -190.19561767578125,-12.329520225524902 -190.19561767578125,2.018951177597046 C-190.19561767578125,16.367422103881836 -169.9396209716797,27.999881744384766 -144.95262145996094,27.999881744384766 C-119.96562194824219,27.999881744384766 -99.7096176147461,16.367996215820312 -99.7096176147461,2.019524335861206z"/></g></g><g transform="matrix(0.7071067690849304,-0.7071067690849304,0.7071067690849304,0.7071067690849304,211.443603515625,204.69808959960938)" opacity="1" style="display: none;"><g opacity="1" transform="matrix(1,0,0,1,0,0)"><path class="primary" fill="rgb(21,198,45)" fill-opacity="1" d=" M-69.00199890136719,7.142000198364258 C-69.00199890136719,-34.59199905395508 -103.01200103759766,-68.42500305175781 -144.96499633789062,-68.42500305175781 C-186.91799926757812,-68.42500305175781 -220.927001953125,-34.59199905395508 -220.927001953125,7.142000198364258 C-220.927001953125,48.875999450683594 -186.91799926757812,82.70800018310547 -144.96499633789062,82.70800018310547 C-103.01200103759766,82.70800018310547 -69.00199890136719,48.875999450683594 -69.00199890136719,7.142000198364258z M-99.72200012207031,7.142000198364258 C-99.72200012207031,31.999000549316406 -119.97799682617188,52.14799880981445 -144.96499633789062,52.14799880981445 C-169.95199584960938,52.14799880981445 -190.20799255371094,31.999000549316406 -190.20799255371094,7.142000198364258 C-190.20799255371094,-17.71500015258789 -169.95199584960938,-37.8650016784668 -144.96499633789062,-37.8650016784668 C-119.97799682617188,-37.8650016784668 -99.72200012207031,-17.71500015258789 -99.72200012207031,7.142000198364258z"/></g></g><g transform="matrix(0.7071067690849304,-0.7071067690849304,-0.7071067690849304,-0.7071067690849304,221.54391479492188,216.44540405273438)" opacity="1" style="display: block;"><g opacity="1" transform="matrix(1,0,0,1,0,0)"><path class="primary" fill="rgb(21,198,45)" fill-opacity="1" d=" M-68.99893951416016,7.450547695159912 C-68.99893951416016,-33.29030990600586 -103.0089111328125,-66.3182144165039 -144.9619140625,-66.3182144165039 C-186.9149169921875,-66.3182144165039 -220.92393493652344,-33.29030990600586 -220.92393493652344,7.450547695159912 C-220.92393493652344,48.191402435302734 -186.9149169921875,81.21830749511719 -144.9619140625,81.21830749511719 C-103.0089111328125,81.21830749511719 -68.99893951416016,48.191402435302734 -68.99893951416016,7.450547695159912z M-99.71891784667969,7.450547695159912 C-99.71891784667969,31.71603775024414 -119.97491455078125,51.38553237915039 -144.9619140625,51.38553237915039 C-169.94891357421875,51.38553237915039 -190.20494079589844,31.71603775024414 -190.20494079589844,7.450547695159912 C-190.20494079589844,-16.814943313598633 -169.94891357421875,-36.485435485839844 -144.9619140625,-36.485435485839844 C-119.97491455078125,-36.485435485839844 -99.71891784667969,-16.814943313598633 -99.71891784667969,7.450547695159912z"/></g></g></g></g><g transform="matrix(1,0,0,1,215,215)" opacity="1" style="display: block;"><g opacity="1" transform="matrix(1,0,0,1,0,0)"><path stroke-linecap="butt" stroke-linejoin="miter" fill-opacity="0" stroke-miterlimit="4" class="primary" stroke="rgb(21,198,45)" stroke-opacity="1" stroke-width="2" d="M0 0"/></g><g opacity="1" transform="matrix(1,0,0,1,0,0)"><path class="primary" fill="rgb(21,198,45)" fill-opacity="1" d=" M-48.126888275146484,40.719364166259766 C-30.085906982421875,57.354888916015625 -8.397756576538086,114.44210815429688 -52.01678466796875,153.3392333984375 C-101.66899871826172,197.60264587402344 -153.57447814941406,155.76048278808594 -161.25804138183594,143.56436157226562 C-161.3009796142578,143.49510192871094 -160.8638153076172,143.7089385986328 -160.82061767578125,143.77789306640625 C-152.79977416992188,156.15255737304688 -101.3698959350586,198.25143432617188 -50.81711959838867,153.06297302246094 C-5.190879821777344,112.26941680908203 -32.612632751464844,55.47526168823242 -47.60532760620117,41.164695739746094 C-47.64726638793945,41.124595642089844 -48.16979217529297,40.680233001708984 -48.126888275146484,40.719364166259766z"/></g></g><g transform="matrix(1,0,0,1,215,215)" opacity="1" style="display: none;"><g opacity="1" transform="matrix(1,0,0,1,0,0)"><path stroke-linecap="butt" stroke-linejoin="miter" fill-opacity="0" stroke-miterlimit="4" class="primary" stroke="rgb(21,198,45)" stroke-opacity="1" stroke-width="2" d="M0 0"/></g><g opacity="1" transform="matrix(1,0,0,1,0,0)"><path class="primary" fill="rgb(21,198,45)" fill-opacity="1" d=" M-48.26169967651367,40.32830047607422 C-30.837554931640625,56.33961868286133 -10.938773155212402,113.3439712524414 -53.705875396728516,151.5605010986328 C-102.232177734375,194.89186096191406 -153.8329315185547,155.27301025390625 -161.25,143.5 C-161.2914276123047,143.4332275390625 -160.18780517578125,144.31076049804688 -160.14637756347656,144.37753295898438 C-152.72930908203125,156.26837158203125 -102.85795593261719,197.785888671875 -51.94158172607422,151.87420654296875 C-6.2405900955200195,111.00750732421875 -32.630943298339844,54.98830032348633 -47.111785888671875,41.213871002197266 C-47.15221405029297,41.17525863647461 -48.303123474121094,40.29069137573242 -48.26169967651367,40.32830047607422z"/></g></g></g></g></svg>